<svg width="2443" height="2500" viewBox="-3.02291 -0.220321 420.923 433.54" xmlns="http://www.w3.org/2000/svg" xmlns:xlink="http://www.w3.org/1999/xlink" overflow="hidden"><path d="M208.45 227.89C206.86 230.15 205.52 232.01 204.23 233.89 183.657 264.17 163.09 294.447 142.53 324.72 123.403 352.88 104.257 381.023 85.09 409.15 84.4467 410.043 83.4543 410.621 82.36 410.74 55.3 410.507 28.2467 410.213 1.2 409.86 0.9 409.86 0.59 409.77-2.55351e-14 409.68 0.218452 409.115 0.472287 408.564 0.76 408.03 19.6333 378.77 38.5067 349.517 57.38 320.27 74.12 294.35 90.87 268.437 107.63 242.53 126.203 213.743 144.767 184.937 163.32 156.11 166.06 151.86 168.91 147.69 171.51 143.36 172.177 142.201 172.377 140.831 172.07 139.53 167.07 123.59 161.97 107.69 156.88 91.79 154.7 84.98 152.42 78.21 150.38 71.36 149.72 69.16 148.63 68.49 146.38 68.5 129.38 68.57 112.48 68.55 95.53 68.55 92.31 68.55 92.3 68.55 92.3 65.37 92.3 44.53 92.3 23.69 92.24 2.85 92.24 0.53 93 0.01 95.18 0.01 129.307 0.07 163.44 0.07 197.58 0.01 199.22-0.199734 200.761 0.840438 201.18 2.44 219.18 47.7133 237.18 92.97 255.18 138.21 276.18 190.97 297.18 243.737 318.18 296.51 324.7 312.89 331.27 329.26 337.72 345.68 338.49 347.68 339.29 348.06 341.31 347.44 359.2 341.91 377.13 336.53 395.01 330.99 397.26 330.29 398.08 330.76 398.78 332.99 404.88 352.16 411.1 371.29 417.28 390.44 417.49 391.1 417.65 391.77 417.9 392.69 416.62 393.16 415.42 393.69 414.19 394.03 373.523 406.917 332.88 419.81 292.26 432.71 290.32 433.32 289.74 432.66 289.09 431.03 276.683 399.59 264.247 368.163 251.78 336.75 239.587 305.99 227.387 275.23 215.18 244.47 213.35 239.85 211.55 235.21 209.72 230.59 209.43 229.8 209.03 229.11 208.45 227.89Z" fill="#FA7E14"/></svg>