<svg width="2065" height="2500" viewBox="0 0 256 310" xmlns="http://www.w3.org/2000/svg" xmlns:xlink="http://www.w3.org/1999/xlink" overflow="hidden"><path d="M256 137.042 193.848 139.617 153.559 137.047 220.199 130.66 256 137.042" fill="#634B1E"/><path d="M220.055 133.45 256 137.042 256 64.636 220.055 46.661 217.295 49.641 217.295 130.369 220.055 133.45" fill="#D9A740"/><path d="M153.559 64.594 220.055 46.597 220.055 133.45 153.559 137.047 153.559 64.594" fill="#886A2A"/><path d="M0 137.042 62.152 139.617 102.441 137.047 35.991 129.93 0 137.042" fill="#634B1E"/><path d="M35.945 133.45 0 136.935 0 64.31 35.945 46.365 37.6 49.456 37.6 130.737 35.945 133.45" fill="#886A2A"/><path d="M102.441 64.594 35.945 46.597 35.945 133.45 102.441 137.047 102.441 64.594" fill="#D9A740"/><g><path d="M256 174.486 193.848 171.91 153.559 174.481 219.909 181.188 256 174.486" fill="#FAD791"/><path d="M220.055 178.078 256 174.486 256 246.891 220.055 264.866 218.167 260.755 218.167 181.772 220.055 178.078" fill="#D9A740"/><path d="M153.559 246.934 220.055 264.931 220.055 178.078 153.559 174.481 153.559 246.934" fill="#886A2A"/></g><g><path d="M0 174.486 62.152 171.91 102.441 174.481 35.51 181.769 0 174.486" fill="#FAD791"/><path d="M35.945 178.078 0 174.486 0 246.891 35.945 264.866 38.124 261.626 38.124 181.769 35.945 178.078" fill="#886A2A"/><path d="M102.441 246.934 35.945 264.931 35.945 178.078 102.441 174.481 102.441 246.934" fill="#D9A740"/></g><g><path d="M95.553 106.629 128.519 100.848 194.333 110.167 200.002 113.428 168.036 116.926 95.553 106.629" fill="#634B1E"/><path d="M160.447 106.629 127.481 100.848 58.833 111.5 55.998 113.428 87.964 116.926 160.447 106.629" fill="#634B1E"/><path d="M95.553 204.899 128.519 210.68 194.167 201.5 200.002 198.1 168.036 194.602 95.553 204.899" fill="#FAD791"/><path d="M160.447 204.899 127.481 210.68 58.333 200.833 55.998 198.1 87.964 194.602 160.447 204.899" fill="#FAD791"/><path d="M200.002 113.428 200.002 77.641 166.289 66.616 166.289 19.776 128 0.634 128 0.635 126.403 3.178 126.112 305.766 128 309.657 166.289 290.515 166.289 244.912 200.002 233.887 200.002 198.1 166.289 204.035 166.289 107.493 200.002 113.428" fill="#D9A740"/><path d="M89.711 19.776 89.711 66.616 55.998 77.641 55.998 113.428 89.711 107.493 89.711 204.035 55.998 198.1 55.998 233.887 89.711 244.912 89.711 290.515 128 309.657 128 0.634 89.711 19.776" fill="#886A2A"/></g></svg>